%FSLAX44Y44*%
%MOMM*%
G71*
G01*
G75*
G04 Layer_Color=16711935*
%ADD10R,3.0000X0.5000*%
%ADD11R,2.5000X2.0000*%
%ADD12R,3.5000X2.0000*%
%ADD13R,0.9000X1.0000*%
%ADD14R,1.7000X0.3500*%
%ADD15R,2.2000X0.6000*%
%ADD16R,0.3500X2.1500*%
%ADD17R,0.3500X2.1500*%
%ADD18R,1.0000X2.0000*%
%ADD19R,1.3000X0.6000*%
%ADD20C,1.5000*%
%ADD21R,1.0000X0.9000*%
%ADD22R,1.0000X1.5000*%
%ADD23R,1.5000X1.0000*%
%ADD24R,0.9000X1.5000*%
%ADD25R,2.6000X2.8000*%
%ADD26R,1.0000X0.8000*%
%ADD27R,0.6000X1.3000*%
%ADD28C,0.3000*%
%ADD29C,0.4000*%
%ADD30C,0.5000*%
%ADD31C,0.2500*%
%ADD32C,0.3500*%
%ADD33C,1.0000*%
%ADD34C,0.6000*%
%ADD35C,2.4000*%
%ADD36R,2.0000X2.0000*%
%ADD37C,0.9000*%
%ADD38O,1.1000X1.3000*%
%ADD39O,1.3000X1.1000*%
%ADD40O,2.2000X1.6000*%
%ADD41R,2.2000X2.0000*%
%ADD42C,0.8000*%
%ADD43C,0.7000*%
%ADD44R,0.4500X0.3000*%
%ADD45R,0.3000X0.4500*%
%ADD46R,2.0000X0.3500*%
%ADD47R,0.8000X0.8000*%
%ADD48R,1.2000X1.6000*%
%ADD49R,2.0000X1.2000*%
%ADD50R,0.6000X1.6000*%
%ADD51R,0.7000X2.0000*%
G04:AMPARAMS|DCode=52|XSize=2mm|YSize=3.4mm|CornerRadius=0mm|HoleSize=0mm|Usage=FLASHONLY|Rotation=0.000|XOffset=0mm|YOffset=0mm|HoleType=Round|Shape=Octagon|*
%AMOCTAGOND52*
4,1,8,-0.5000,1.7000,0.5000,1.7000,1.0000,1.2000,1.0000,-1.2000,0.5000,-1.7000,-0.5000,-1.7000,-1.0000,-1.2000,-1.0000,1.2000,-0.5000,1.7000,0.0*
%
%ADD52OCTAGOND52*%

%ADD53C,0.3400*%
%ADD54C,0.2000*%
%ADD55C,0.1000*%
%ADD56C,0.1500*%
%ADD57C,0.2540*%
%ADD58C,1.9000*%
%ADD59C,2.5000*%
%ADD60C,2.6032*%
%ADD61R,2.2032X2.2032*%
%ADD62C,0.1524*%
D55*
X886500Y50500D02*
G03*
X886500Y50500I-3000J0D01*
G01*
X902000Y142500D02*
G03*
X902000Y142500I-5000J0D01*
G01*
X609999Y73000D02*
G03*
X609999Y73000I-5000J0D01*
G01*
X942750Y75500D02*
G03*
X942750Y75500I-5000J0D01*
G01*
X348501Y110250D02*
G03*
X348501Y110250I-5000J0D01*
G01*
X291750Y128500D02*
Y142500D01*
X261750Y128500D02*
Y142500D01*
Y128500D02*
X291750D01*
X261750Y142500D02*
X291750D01*
X877500Y44500D02*
Y74500D01*
X907500Y44500D02*
Y74500D01*
X877500Y44500D02*
X907500D01*
X877500Y74500D02*
X907500D01*
X861000Y120500D02*
X906000D01*
X861000Y151500D02*
X906000D01*
X861000Y120500D02*
Y151500D01*
X906000Y120500D02*
Y151500D01*
X88500Y84500D02*
Y102500D01*
X119500Y84500D02*
Y102500D01*
X88500D02*
X119500D01*
X88500Y84500D02*
X119500D01*
X595499Y37500D02*
Y82500D01*
X638499Y37500D02*
Y82500D01*
X595499D02*
X638499D01*
X595499Y37500D02*
X638499D01*
X892250Y121500D02*
X946750D01*
X892250Y66500D02*
X946750D01*
X892250D02*
Y121500D01*
X946750Y66500D02*
Y121500D01*
X274000Y53500D02*
Y83500D01*
X260000Y53500D02*
Y83500D01*
Y53500D02*
X274000D01*
X260000Y83500D02*
X274000D01*
X348501Y48000D02*
Y78000D01*
X362501Y48000D02*
Y78000D01*
X348501Y48000D02*
X362501D01*
X348501Y78000D02*
X362501D01*
X1005500Y77000D02*
Y107000D01*
X991500Y77000D02*
Y107000D01*
X1005500D01*
X991500Y77000D02*
X1005500D01*
X392000Y85250D02*
X422000D01*
X392000Y99250D02*
X422000D01*
X392000Y85250D02*
Y99250D01*
X422000Y85250D02*
Y99250D01*
X392000Y44000D02*
X422000D01*
X392000Y58000D02*
X422000D01*
X392000Y44000D02*
Y58000D01*
X422000Y44000D02*
Y58000D01*
X307001Y100750D02*
X353001D01*
X307001Y126750D02*
X353001D01*
Y100750D02*
Y126750D01*
X307001Y100750D02*
Y126750D01*
X1046500Y39000D02*
Y69000D01*
X1032500Y39000D02*
Y69000D01*
Y39000D02*
X1046500D01*
X1032500Y69000D02*
X1046500D01*
X886500Y242500D02*
G03*
X886500Y242500I-3000J0D01*
G01*
X902000Y334500D02*
G03*
X902000Y334500I-5000J0D01*
G01*
X609999Y265000D02*
G03*
X609999Y265000I-5000J0D01*
G01*
X942750Y267500D02*
G03*
X942750Y267500I-5000J0D01*
G01*
X348501Y302250D02*
G03*
X348501Y302250I-5000J0D01*
G01*
X291750Y320500D02*
Y334500D01*
X261750Y320500D02*
Y334500D01*
Y320500D02*
X291750D01*
X261750Y334500D02*
X291750D01*
X877500Y236500D02*
Y266500D01*
X907500Y236500D02*
Y266500D01*
X877500Y236500D02*
X907500D01*
X877500Y266500D02*
X907500D01*
X861000Y312500D02*
X906000D01*
X861000Y343500D02*
X906000D01*
X861000Y312500D02*
Y343500D01*
X906000Y312500D02*
Y343500D01*
X88500Y276500D02*
Y294500D01*
X119500Y276500D02*
Y294500D01*
X88500D02*
X119500D01*
X88500Y276500D02*
X119500D01*
X595499Y229500D02*
Y274500D01*
X638499Y229500D02*
Y274500D01*
X595499D02*
X638499D01*
X595499Y229500D02*
X638499D01*
X892250Y313500D02*
X946750D01*
X892250Y258500D02*
X946750D01*
X892250D02*
Y313500D01*
X946750Y258500D02*
Y313500D01*
X274000Y245500D02*
Y275500D01*
X260000Y245500D02*
Y275500D01*
Y245500D02*
X274000D01*
X260000Y275500D02*
X274000D01*
X348501Y240000D02*
Y270000D01*
X362501Y240000D02*
Y270000D01*
X348501Y240000D02*
X362501D01*
X348501Y270000D02*
X362501D01*
X1005500Y269000D02*
Y299000D01*
X991500Y269000D02*
Y299000D01*
X1005500D01*
X991500Y269000D02*
X1005500D01*
X392000Y277250D02*
X422000D01*
X392000Y291250D02*
X422000D01*
X392000Y277250D02*
Y291250D01*
X422000Y277250D02*
Y291250D01*
X392000Y236000D02*
X422000D01*
X392000Y250000D02*
X422000D01*
X392000Y236000D02*
Y250000D01*
X422000Y236000D02*
Y250000D01*
X307001Y292750D02*
X353001D01*
X307001Y318750D02*
X353001D01*
Y292750D02*
Y318750D01*
X307001Y292750D02*
Y318750D01*
X1046500Y231000D02*
Y261000D01*
X1032500Y231000D02*
Y261000D01*
Y231000D02*
X1046500D01*
X1032500Y261000D02*
X1046500D01*
X886500Y434500D02*
G03*
X886500Y434500I-3000J0D01*
G01*
X902000Y526500D02*
G03*
X902000Y526500I-5000J0D01*
G01*
X609999Y457000D02*
G03*
X609999Y457000I-5000J0D01*
G01*
X942750Y459500D02*
G03*
X942750Y459500I-5000J0D01*
G01*
X348501Y494250D02*
G03*
X348501Y494250I-5000J0D01*
G01*
X291750Y512500D02*
Y526500D01*
X261750Y512500D02*
Y526500D01*
Y512500D02*
X291750D01*
X261750Y526500D02*
X291750D01*
X877500Y428500D02*
Y458500D01*
X907500Y428500D02*
Y458500D01*
X877500Y428500D02*
X907500D01*
X877500Y458500D02*
X907500D01*
X861000Y504500D02*
X906000D01*
X861000Y535500D02*
X906000D01*
X861000Y504500D02*
Y535500D01*
X906000Y504500D02*
Y535500D01*
X88500Y468500D02*
Y486500D01*
X119500Y468500D02*
Y486500D01*
X88500D02*
X119500D01*
X88500Y468500D02*
X119500D01*
X595499Y421500D02*
Y466500D01*
X638499Y421500D02*
Y466500D01*
X595499D02*
X638499D01*
X595499Y421500D02*
X638499D01*
X892250Y505500D02*
X946750D01*
X892250Y450500D02*
X946750D01*
X892250D02*
Y505500D01*
X946750Y450500D02*
Y505500D01*
X274000Y437500D02*
Y467500D01*
X260000Y437500D02*
Y467500D01*
Y437500D02*
X274000D01*
X260000Y467500D02*
X274000D01*
X348501Y432000D02*
Y462000D01*
X362501Y432000D02*
Y462000D01*
X348501Y432000D02*
X362501D01*
X348501Y462000D02*
X362501D01*
X1005500Y461000D02*
Y491000D01*
X991500Y461000D02*
Y491000D01*
X1005500D01*
X991500Y461000D02*
X1005500D01*
X392000Y469250D02*
X422000D01*
X392000Y483250D02*
X422000D01*
X392000Y469250D02*
Y483250D01*
X422000Y469250D02*
Y483250D01*
X392000Y428000D02*
X422000D01*
X392000Y442000D02*
X422000D01*
X392000Y428000D02*
Y442000D01*
X422000Y428000D02*
Y442000D01*
X307001Y484750D02*
X353001D01*
X307001Y510750D02*
X353001D01*
Y484750D02*
Y510750D01*
X307001Y484750D02*
Y510750D01*
X1046500Y423000D02*
Y453000D01*
X1032500Y423000D02*
Y453000D01*
Y423000D02*
X1046500D01*
X1032500Y453000D02*
X1046500D01*
X886500Y626500D02*
G03*
X886500Y626500I-3000J0D01*
G01*
X902000Y718500D02*
G03*
X902000Y718500I-5000J0D01*
G01*
X609999Y649000D02*
G03*
X609999Y649000I-5000J0D01*
G01*
X942750Y651500D02*
G03*
X942750Y651500I-5000J0D01*
G01*
X348501Y686250D02*
G03*
X348501Y686250I-5000J0D01*
G01*
X291750Y704500D02*
Y718500D01*
X261750Y704500D02*
Y718500D01*
Y704500D02*
X291750D01*
X261750Y718500D02*
X291750D01*
X877500Y620500D02*
Y650500D01*
X907500Y620500D02*
Y650500D01*
X877500Y620500D02*
X907500D01*
X877500Y650500D02*
X907500D01*
X861000Y696500D02*
X906000D01*
X861000Y727500D02*
X906000D01*
X861000Y696500D02*
Y727500D01*
X906000Y696500D02*
Y727500D01*
X88500Y660500D02*
Y678500D01*
X119500Y660500D02*
Y678500D01*
X88500D02*
X119500D01*
X88500Y660500D02*
X119500D01*
X595499Y613500D02*
Y658500D01*
X638499Y613500D02*
Y658500D01*
X595499D02*
X638499D01*
X595499Y613500D02*
X638499D01*
X892250Y697500D02*
X946750D01*
X892250Y642500D02*
X946750D01*
X892250D02*
Y697500D01*
X946750Y642500D02*
Y697500D01*
X274000Y629500D02*
Y659500D01*
X260000Y629500D02*
Y659500D01*
Y629500D02*
X274000D01*
X260000Y659500D02*
X274000D01*
X348501Y624000D02*
Y654000D01*
X362501Y624000D02*
Y654000D01*
X348501Y624000D02*
X362501D01*
X348501Y654000D02*
X362501D01*
X1005500Y653000D02*
Y683000D01*
X991500Y653000D02*
Y683000D01*
X1005500D01*
X991500Y653000D02*
X1005500D01*
X392000Y661250D02*
X422000D01*
X392000Y675250D02*
X422000D01*
X392000Y661250D02*
Y675250D01*
X422000Y661250D02*
Y675250D01*
X392000Y620000D02*
X422000D01*
X392000Y634000D02*
X422000D01*
X392000Y620000D02*
Y634000D01*
X422000Y620000D02*
Y634000D01*
X307001Y676750D02*
X353001D01*
X307001Y702750D02*
X353001D01*
Y676750D02*
Y702750D01*
X307001Y676750D02*
Y702750D01*
X1046500Y615000D02*
Y645000D01*
X1032500Y615000D02*
Y645000D01*
Y615000D02*
X1046500D01*
X1032500Y645000D02*
X1046500D01*
X886500Y818500D02*
G03*
X886500Y818500I-3000J0D01*
G01*
X902000Y910500D02*
G03*
X902000Y910500I-5000J0D01*
G01*
X609999Y841000D02*
G03*
X609999Y841000I-5000J0D01*
G01*
X942750Y843500D02*
G03*
X942750Y843500I-5000J0D01*
G01*
X348501Y878250D02*
G03*
X348501Y878250I-5000J0D01*
G01*
X291750Y896500D02*
Y910500D01*
X261750Y896500D02*
Y910500D01*
Y896500D02*
X291750D01*
X261750Y910500D02*
X291750D01*
X877500Y812500D02*
Y842500D01*
X907500Y812500D02*
Y842500D01*
X877500Y812500D02*
X907500D01*
X877500Y842500D02*
X907500D01*
X861000Y888500D02*
X906000D01*
X861000Y919500D02*
X906000D01*
X861000Y888500D02*
Y919500D01*
X906000Y888500D02*
Y919500D01*
X88500Y852500D02*
Y870500D01*
X119500Y852500D02*
Y870500D01*
X88500D02*
X119500D01*
X88500Y852500D02*
X119500D01*
X595499Y805500D02*
Y850500D01*
X638499Y805500D02*
Y850500D01*
X595499D02*
X638499D01*
X595499Y805500D02*
X638499D01*
X892250Y889500D02*
X946750D01*
X892250Y834500D02*
X946750D01*
X892250D02*
Y889500D01*
X946750Y834500D02*
Y889500D01*
X274000Y821500D02*
Y851500D01*
X260000Y821500D02*
Y851500D01*
Y821500D02*
X274000D01*
X260000Y851500D02*
X274000D01*
X348501Y816000D02*
Y846000D01*
X362501Y816000D02*
Y846000D01*
X348501Y816000D02*
X362501D01*
X348501Y846000D02*
X362501D01*
X1005500Y845000D02*
Y875000D01*
X991500Y845000D02*
Y875000D01*
X1005500D01*
X991500Y845000D02*
X1005500D01*
X392000Y853250D02*
X422000D01*
X392000Y867250D02*
X422000D01*
X392000Y853250D02*
Y867250D01*
X422000Y853250D02*
Y867250D01*
X392000Y812000D02*
X422000D01*
X392000Y826000D02*
X422000D01*
X392000Y812000D02*
Y826000D01*
X422000Y812000D02*
Y826000D01*
X307001Y868750D02*
X353001D01*
X307001Y894750D02*
X353001D01*
Y868750D02*
Y894750D01*
X307001Y868750D02*
Y894750D01*
X1046500Y807000D02*
Y837000D01*
X1032500Y807000D02*
Y837000D01*
Y807000D02*
X1046500D01*
X1032500Y837000D02*
X1046500D01*
X886500Y1010500D02*
G03*
X886500Y1010500I-3000J0D01*
G01*
X902000Y1102500D02*
G03*
X902000Y1102500I-5000J0D01*
G01*
X609999Y1033000D02*
G03*
X609999Y1033000I-5000J0D01*
G01*
X942750Y1035500D02*
G03*
X942750Y1035500I-5000J0D01*
G01*
X348501Y1070250D02*
G03*
X348501Y1070250I-5000J0D01*
G01*
X291750Y1088500D02*
Y1102500D01*
X261750Y1088500D02*
Y1102500D01*
Y1088500D02*
X291750D01*
X261750Y1102500D02*
X291750D01*
X877500Y1004500D02*
Y1034500D01*
X907500Y1004500D02*
Y1034500D01*
X877500Y1004500D02*
X907500D01*
X877500Y1034500D02*
X907500D01*
X861000Y1080500D02*
X906000D01*
X861000Y1111500D02*
X906000D01*
X861000Y1080500D02*
Y1111500D01*
X906000Y1080500D02*
Y1111500D01*
X88500Y1044500D02*
Y1062500D01*
X119500Y1044500D02*
Y1062500D01*
X88500D02*
X119500D01*
X88500Y1044500D02*
X119500D01*
X595499Y997500D02*
Y1042500D01*
X638499Y997500D02*
Y1042500D01*
X595499D02*
X638499D01*
X595499Y997500D02*
X638499D01*
X892250Y1081500D02*
X946750D01*
X892250Y1026500D02*
X946750D01*
X892250D02*
Y1081500D01*
X946750Y1026500D02*
Y1081500D01*
X274000Y1013500D02*
Y1043500D01*
X260000Y1013500D02*
Y1043500D01*
Y1013500D02*
X274000D01*
X260000Y1043500D02*
X274000D01*
X348501Y1008000D02*
Y1038000D01*
X362501Y1008000D02*
Y1038000D01*
X348501Y1008000D02*
X362501D01*
X348501Y1038000D02*
X362501D01*
X1005500Y1037000D02*
Y1067000D01*
X991500Y1037000D02*
Y1067000D01*
X1005500D01*
X991500Y1037000D02*
X1005500D01*
X392000Y1045250D02*
X422000D01*
X392000Y1059250D02*
X422000D01*
X392000Y1045250D02*
Y1059250D01*
X422000Y1045250D02*
Y1059250D01*
X392000Y1004000D02*
X422000D01*
X392000Y1018000D02*
X422000D01*
X392000Y1004000D02*
Y1018000D01*
X422000Y1004000D02*
Y1018000D01*
X307001Y1060750D02*
X353001D01*
X307001Y1086750D02*
X353001D01*
Y1060750D02*
Y1086750D01*
X307001Y1060750D02*
Y1086750D01*
X1046500Y999000D02*
Y1029000D01*
X1032500Y999000D02*
Y1029000D01*
Y999000D02*
X1046500D01*
X1032500Y1029000D02*
X1046500D01*
M02*
