M48
;Layer_Color=9474304
;FILE_FORMAT=4:4
METRIC,LZ
;TYPE=PLATED
T1F00S00C0.4000
T2F00S00C0.5000
T3F00S00C0.6500
T4F00S00C0.7000
T5F00S00C0.8000
T6F00S00C1.0000
T7F00S00C1.2000
;TYPE=NON_PLATED
T8F00S00C0.9000
T9F00S00C2.5500
%
T01
X007615Y00043
X007375Y0007625
X007615Y00235
X007375Y0026825
X007615Y00427
X007375Y0046025
X007615Y00619
X007375Y0065225
X007615Y00811
X007375Y0084425
X007615Y01003
X007375Y0103625
T02
X0099125Y00014
X0102825
X01065Y00034
Y00094
X0102925Y0010075
X010375Y00135
X010275Y00152
X01065Y00154
X0101Y0017925
X00996Y000635
X009715Y00084
X009815Y00119
Y00141
X009595Y00156
X0096Y0017925
X009465Y00144
X008785Y00142
X008635Y00152
X0086Y0017925
X0091
X009005Y00088
X009245Y00087
X008705Y00088
Y001
Y00113
X008225Y00116
X008005Y00096
X008265Y00076
X008445
X008435Y00043
X008655Y00045
X008645Y000575
X009125Y00037
X009565Y000485
X0097125Y00028
X0069275Y0003975
X00699Y0009215
X0066575
X00648999Y00092
X00621999Y00073
X0062575Y00058
X00622999Y00032
X0062Y0011975
X006Y001545
X0063Y0017925
X0068
X0065675Y001545
X0079525Y0017925
X0058
X0053
X0054Y001545
X0054625Y001205
X00525
X0051325Y0010425
X0048Y001545
Y0017925
X0043
X0038Y00174
X0033
X0028
X0023
X00245Y0012325
X00254Y0008575
X0031275Y00121
X003075Y0013875
X0035225
X003475Y00121
X0036775Y0007725
X00419499Y0006475
X0042725Y00035
X0045425Y00024
X0038Y00014
X0033
X0028
X0023
X00566999Y00032
X00583999Y0003
X0018Y00014
X00169Y00049
X00119
X0012775Y000845
Y00103
X00119Y00139
X00169Y00139
X00173Y001105
X0018Y00174
Y00206
X00169Y00241
X00119
X0012775Y002765
Y00295
X00119Y00331
X00169Y00331
X00173Y003025
X0018Y00366
Y00398
X00169Y00433
X00119
X0012775Y004685
Y00487
X00119Y00523
X00169Y00523
X00173Y004945
X0018Y00558
Y0059
X0023
Y00558
X0028
Y0059
X0033
Y00558
X0038
Y0059
X0043Y0056325
X0048
Y005385
X0054
X0053Y0056325
X0058
X0054625Y005045
X00525
X0051325Y0048825
X00566999Y00416
X00583999Y00414
X0058Y0037125
X0053
X0054Y003465
X0054625Y003125
X00525
X0051325Y0029625
X0048Y003465
Y0037125
X0043
X0042725Y00419
X00419499Y0044875
X0036775Y0046125
X003475Y00505
X0035225Y0052275
X003075
X0031275Y00505
X00245Y0050725
X00254Y0046975
X0023Y00398
Y00366
X0028
Y00398
X0033
Y00366
X0038
Y00398
X0045425Y00408
X0035225Y0033075
X003475Y00313
X0031275
X003075Y0033075
X00245Y0031525
X00254Y0027775
X0023Y00206
X0028
X0033
X0038
X0042725Y00227
X00419499Y0025675
X0036775Y0026925
X0045425Y00216
X00566999Y00224
X00583999Y00222
X00622999Y00224
X0062575Y0025
X00621999Y00265
X00648999Y00284
X0066575Y0028415
X00699
X0069275Y0023175
X0065675Y003465
X0068Y0037125
X0063
X00622999Y00416
X0062575Y00442
X00621999Y00457
X00648999Y00476
X0066575Y0047615
X00699
X0069275Y0042375
X0065675Y005385
X0068Y0056325
X0063
X006Y005385
X0062Y0050375
X006Y003465
X0062Y0031175
X008005Y00288
X008225Y00308
X008265Y00268
X008445
X008435Y00235
X008655Y00237
X008645Y002495
X008705Y0028
Y00292
Y00305
X008785Y00334
X008635Y00344
X0086Y0037125
X0091
X0096
X009595Y00348
X009465Y00336
X009815Y00333
Y00311
X009715Y00276
X009245Y00279
X009005Y0028
X009125Y00229
X009565Y002405
X0097125Y0022
Y00412
X009565Y004325
X009715Y00468
X009815Y00503
Y00525
X009595Y0054
X0096Y0056325
X009465Y00528
X008785Y00526
X008635Y00536
X0086Y0056325
X0091
X009005Y00472
X009245Y00471
X008705Y00472
Y00484
Y00497
X008225Y005
X008005Y0048
X008265Y0046
X008445
X008435Y00427
X008655Y00429
X008645Y004415
X009125Y00421
X0079525Y0037125
Y0056325
X0101
X010275Y00536
X010375Y00519
X0102925Y0048475
X01065Y00478
Y00418
X0102825Y00398
X0099125
X0101Y0037125
X010275Y00344
X010375Y00327
X0102925Y0029275
X01065Y00286
Y00226
X0102825Y00206
X0099125
X00996Y002555
X01065Y00346
X00996Y004475
X0099125Y0059
X0102825
X01065Y00538
Y0061
Y0067
X0102925Y0067675
X010375Y00711
X010275Y00728
X01065Y0073
Y00802
X0102825Y00782
X0099125
X0101Y0075525
X00996Y008315
X0102925Y0086875
X010375Y00903
X010275Y0092
X01065Y00922
Y00862
X0101Y0094725
X0102825Y00974
X0099125
X00996Y006395
X009715Y0066
X009815Y00695
Y00717
X009595Y00732
X0096Y0075525
X009465Y0072
X008785Y00718
X008635Y00728
X0086Y0075525
X0091
X009125Y00805
X008655Y00813
X008645Y008255
X008435Y00811
X008445Y00844
X008265
X008225Y00884
X008005Y00864
X008705Y00868
Y00856
Y00881
X008785Y0091
X008635Y0092
X0086Y0094725
X0091
X0096
X009595Y00924
X009465Y00912
X009815Y00909
Y00887
X009715Y00852
X009245Y00855
X009005Y00856
X009565Y008165
X0097125Y00796
X009245Y00663
X009005Y00664
X008705
Y00676
Y00689
X008225Y00692
X008005Y00672
X008265Y00652
X008445
X008435Y00619
X008655Y00621
X008645Y006335
X009125Y00613
X009565Y006245
X0097125Y00604
X0069275Y0061575
X00699Y0066815
X0066575
X00648999Y00668
X00621999Y00649
X0062575Y00634
X00622999Y00608
X0062Y0069575
X006Y007305
X0063Y0075525
X0068
X0065675Y007305
X00622999Y008
X0062575Y00826
X00621999Y00841
X00648999Y0086
X0066575Y0086015
X00699
X0069275Y0080775
X0065675Y009225
X0068Y0094725
X0063
X006Y009225
X0062Y0088775
X0079525Y0094725
Y0075525
X0097125Y00988
X0058Y0094725
X0053
X0054Y009225
X0054625Y008885
X00525
X0051325Y0087225
X0048Y009225
Y0094725
X0043
X0038Y00942
Y00974
X0033
Y00942
X0028
Y00974
X0023
Y00942
X00245Y0089125
X00254Y0085375
X0031275Y00889
X003075Y0090675
X0035225
X003475Y00889
X0036775Y0084525
X00419499Y0083275
X0042725Y00803
X0045425Y00792
X0043Y0075525
X0048
Y007305
X0054
X0053Y0075525
X0058
X00583999Y00798
X00566999Y008
X0054625Y006965
X00525
X0051325Y0068025
X00566999Y00608
X00583999Y00606
X0045425Y006
X0042725Y00611
X00419499Y0064075
X0036775Y0065325
X003475Y00697
X0035225Y0071475
X003075
X0031275Y00697
X00245Y0069925
X00254Y0066175
X0023Y0075
Y00782
X0028
Y0075
X0033
Y00782
X0038
Y0075
X0045425Y00984
X0018Y00974
Y00942
X00169Y00907
X00173Y008785
X0012775Y00871
Y008525
X00119Y00817
X00169
X0018Y00782
Y0075
X00169Y00715
X00173Y006865
X0012775Y00679
Y006605
X00119Y00625
X00169
X00119Y00715
Y00907
Y01009
X0012775Y010445
Y01063
X00119Y01099
X00169Y01099
X00173Y010705
X00169Y01009
X0018Y01134
X0023
X0028
X0033
X0038
X0043Y0113925
X0048
Y011145
X0054
X0053Y0113925
X0058
X0054625Y010805
X00525
X0051325Y0106425
X00566999Y00992
X00583999Y0099
X0042725Y00995
X00419499Y0102475
X0036775Y0103725
X003475Y01081
X0035225Y0109875
X003075
X0031275Y01081
X00245Y0108325
X00254Y0104575
X00621999Y01033
X0062575Y01018
X00622999Y00992
X0069275Y0099975
X00699Y0105215
X0066575
X00648999Y01052
X0062Y0107975
X006Y011145
X0063Y0113925
X0068
X0065675Y011145
X0079525Y0113925
X0086
X008635Y01112
X008785Y01102
X008705Y01073
Y0106
Y01048
X009005
X009245Y01047
X009715Y01044
X009815Y01079
Y01101
X009595Y01116
X0096Y0113925
X009465Y01104
X0091Y0113925
X009125Y00997
X008655Y01005
X008645Y010175
X008435Y01003
X008445Y01036
X008265
X008225Y01076
X008005Y01056
X009565Y010085
X00996Y010235
X0102925Y0106075
X010375Y01095
X010275Y01112
X01065Y01114
Y01054
Y00994
X0101Y0113925
T03
X0068325Y0006675
Y0007945
Y0009215
Y0010485
Y0011755
X007225Y00159
X007352
X007479
X007606
X007733
X00786
X007987
X008114
X008241
X008368
Y00029
X008241
X008114
X007987
X00786
X007733
X007606
X007479
X007352
X007225
Y00221
X007352
X007479
X007606
X007733
X00786
X007987
X008114
X008241
X008368
Y00351
X008241
X008114
X007987
X00786
X007733
X007606
X007479
X007352
X007225
Y00413
X007352
X007479
X007606
X007733
X00786
X007987
X008114
X008241
X008368
Y00543
X008241
X008114
X007987
X00786
X007733
X007606
X007479
X007352
X007225
X0068325Y0050155
Y0048885
Y0047615
Y0046345
Y0045075
Y0030955
Y0029685
Y0028415
Y0027145
Y0025875
Y0064275
Y0065545
Y0066815
Y0068085
Y0069355
X007225Y00735
X007352
X007479
X007606
X007733
X00786
X007987
X008114
X008241
X008368
Y00797
X008241
X008114
X007987
X00786
X007733
X007606
X007479
X007352
X007225
X0068325Y0083475
Y0084745
Y0086015
Y0087285
Y0088555
X007225Y00927
X007352
X007479
X007606
X007733
X00786
X007987
X008114
X008241
X008368
Y00605
X008241
X008114
X007987
X00786
X007733
X007606
X007479
X007352
X007225
Y00989
X007352
X007479
X007606
X007733
X00786
X007987
X008114
X008241
X008368
Y01119
X008241
X008114
X007987
X00786
X007733
X007606
X007479
X007352
X007225
X0068325Y0107755
Y0106485
Y0105215
Y0103945
Y0102675
T04
X0046625Y000783
Y001037
Y002703
Y002957
Y004623
Y004877
Y006543
Y006797
Y008463
Y008717
Y010383
Y010637
T05
X00215Y000686
Y001194
Y002606
Y003114
Y004526
Y005034
Y006446
Y006954
Y008366
Y008874
Y010286
Y010794
T06
X011Y0017
X0004
X011Y00978
X0004Y00978
T07
X010085Y001263
Y001517
Y003183
Y003437
Y005103
Y005357
Y007023
Y007277
Y008943
Y009197
Y010863
Y011117
T08
X00124Y00072
Y00116
Y00264
Y00308
Y00456
Y005
Y00648
Y00692
Y0084
Y00884
Y01032
Y01076
T09
X0004Y001
X011Y0025
X0004Y01048
X011Y01048
M30
